solid STL generated by MeshLab
  facet normal  9.797177e-01  1.999880e-01  1.257559e-02
    outer loop
      vertex   2.563148e+01  1.631656e+01  1.442787e+00
      vertex   2.428161e+01  2.300675e+01  2.128372e-01
      vertex   2.434080e+01  2.247117e+01  4.118908e+00
    endloop
  endfacet
  facet normal  9.780354e-01  2.079881e-01  1.369801e-02
    outer loop
      vertex   2.344276e+01  2.691824e+01  7.152427e-01
      vertex   2.434080e+01  2.247117e+01  4.118908e+00
      vertex   2.428161e+01  2.300675e+01  2.128372e-01
    endloop
  endfacet
  facet normal  1.144992e-01  9.932370e-01  1.923758e-02
    outer loop
      vertex   2.460385e+01  3.327744e+00  1.190259e+00
      vertex   2.840853e+01  2.756538e+00  8.036764e+00
      vertex   3.241300e+01  2.418218e+00  1.670235e+00
    endloop
  endfacet
  facet normal  9.803817e-01 -1.889242e-01  5.620749e-02
    outer loop
      vertex   2.460385e+01  3.327744e+00  1.190259e+00
      vertex   2.586535e+01  1.001392e+01  1.660441e+00
      vertex   2.492716e+01  6.838040e+00  7.349792e+00
    endloop
  endfacet
  facet normal  9.958122e-01  3.979389e-02  8.230726e-02
    outer loop
      vertex   2.586535e+01  1.001392e+01  1.660441e+00
      vertex   2.563148e+01  1.631656e+01  1.442787e+00
      vertex   2.527611e+01  1.296099e+01  7.364652e+00
    endloop
  endfacet
  facet normal  9.768848e-01  2.128010e-01  2.028998e-02
    outer loop
      vertex   2.434080e+01  2.247117e+01  4.118908e+00
      vertex   2.344276e+01  2.691824e+01  7.152427e-01
      vertex   2.364514e+01  2.539235e+01  6.974975e+00
    endloop
  endfacet
  facet normal -1.999035e-01  9.616045e-01  1.880301e-01
    outer loop
      vertex  -1.034055e+01  2.748868e+01  1.972421e+00
      vertex  -1.840537e+01  2.581947e+01  1.934844e+00
      vertex  -1.221915e+01  2.588886e+01  8.156828e+00
    endloop
  endfacet
  facet normal  9.792441e-01  1.428244e-01  1.438134e-01
    outer loop
      vertex   2.563148e+01  1.631656e+01  1.442787e+00
      vertex   2.434080e+01  2.247117e+01  4.118908e+00
      vertex   2.438346e+01  1.892964e+01  7.345607e+00
    endloop
  endfacet
  facet normal  4.402449e-02  9.709361e-01  2.352548e-01
    outer loop
      vertex   2.344276e+01  2.691824e+01  7.152427e-01
      vertex   1.765385e+01  2.703704e+01  1.308240e+00
      vertex   2.364514e+01  2.539235e+01  6.974975e+00
    endloop
  endfacet
  facet normal -2.892340e-02  9.849448e-01  1.704324e-01
    outer loop
      vertex   1.765385e+01  2.703704e+01  1.308240e+00
      vertex   1.145509e+01  2.681172e+01  1.558423e+00
      vertex   1.728637e+01  2.594056e+01  7.582545e+00
    endloop
  endfacet
  facet normal -2.189833e-02  9.996663e-01  1.370126e-02
    outer loop
      vertex   3.999716e+01  2.578156e+00  2.122442e+00
      vertex   3.241300e+01  2.418218e+00  1.670235e+00
      vertex   3.480383e+01  2.371473e+00  8.902011e+00
    endloop
  endfacet
  facet normal  2.224775e-01  9.494683e-01  2.213901e-01
    outer loop
      vertex   1.145509e+01  2.681172e+01  1.558423e+00
      vertex   5.314501e+00  2.816296e+01  1.934154e+00
      vertex   1.071041e+01  2.553258e+01  7.792566e+00
    endloop
  endfacet
  facet normal -9.628167e-01  2.699688e-01  1.003979e-02
    outer loop
      vertex  -1.872890e+01  2.443022e+01  8.265037e+00
      vertex  -1.840537e+01  2.581947e+01  1.934844e+00
      vertex  -2.016562e+01  1.941828e+01  5.253964e+00
    endloop
  endfacet
  facet normal  1.013147e-01  9.789791e-01  1.770178e-01
    outer loop
      vertex   1.728637e+01  2.594056e+01  7.582545e+00
      vertex   2.364514e+01  2.539235e+01  6.974975e+00
      vertex   1.765385e+01  2.703704e+01  1.308240e+00
    endloop
  endfacet
  facet normal  8.635149e-01 -4.563245e-01  2.147322e-01
    outer loop
      vertex   2.460385e+01  3.327744e+00  1.190259e+00
      vertex   2.492716e+01  6.838040e+00  7.349792e+00
      vertex   2.248360e+01  2.425423e+00  7.799027e+00
    endloop
  endfacet
  facet normal  9.539250e-01  2.943552e-01 -5.815606e-02
    outer loop
      vertex   4.075565e+01  1.326898e+00  8.230594e+00
      vertex   4.215382e+01 -4.007660e+00  4.163861e+00
      vertex   3.999716e+01  2.578156e+00  2.122442e+00
    endloop
  endfacet
  facet normal -6.006381e-02  9.914207e-01  1.160927e-01
    outer loop
      vertex   2.248360e+01  2.425423e+00  7.799027e+00
      vertex   2.840853e+01  2.756538e+00  8.036764e+00
      vertex   2.460385e+01  3.327744e+00  1.190259e+00
    endloop
  endfacet
  facet normal -5.455292e-02  9.793965e-01  1.944391e-01
    outer loop
      vertex   1.071041e+01  2.553258e+01  7.792566e+00
      vertex   1.728637e+01  2.594056e+01  7.582545e+00
      vertex   1.145509e+01  2.681172e+01  1.558423e+00
    endloop
  endfacet
  facet normal -8.396034e-02  9.964396e-01  7.655394e-03
    outer loop
      vertex  -2.342113e+00  2.815614e+01  2.817372e+00
      vertex  -1.034055e+01  2.748868e+01  1.972421e+00
      vertex  -6.676036e+00  2.773720e+01  9.815102e+00
    endloop
  endfacet
  facet normal  2.225136e-03  9.996327e-01  2.700939e-02
    outer loop
      vertex  -2.342113e+00  2.815614e+01  2.817372e+00
      vertex   4.753752e+00  2.798811e+01  8.451664e+00
      vertex   5.314501e+00  2.816296e+01  1.934154e+00
    endloop
  endfacet
  facet normal -2.111109e-01  9.569438e-01  1.992251e-01
    outer loop
      vertex  -1.221915e+01  2.588886e+01  8.156828e+00
      vertex  -1.840537e+01  2.581947e+01  1.934844e+00
      vertex  -1.872890e+01  2.443022e+01  8.265037e+00
    endloop
  endfacet
  facet normal  9.896869e-01 -5.672190e-02  1.315392e-01
    outer loop
      vertex   2.492716e+01  6.838040e+00  7.349792e+00
      vertex   2.586535e+01  1.001392e+01  1.660441e+00
      vertex   2.527611e+01  1.296099e+01  7.364652e+00
    endloop
  endfacet
  facet normal  9.789181e-01  1.468566e-01  1.419596e-01
    outer loop
      vertex   2.563148e+01  1.631656e+01  1.442787e+00
      vertex   2.438346e+01  1.892964e+01  7.345607e+00
      vertex   2.527611e+01  1.296099e+01  7.364652e+00
    endloop
  endfacet
  facet normal  3.859502e-01  9.207004e-01  5.790646e-02
    outer loop
      vertex   4.753752e+00  2.798811e+01  8.451664e+00
      vertex   1.071041e+01  2.553258e+01  7.792566e+00
      vertex   5.314501e+00  2.816296e+01  1.934154e+00
    endloop
  endfacet
  facet normal  1.892704e-01  9.663051e-01  1.744452e-01
    outer loop
      vertex   4.075565e+01  1.326898e+00  8.230594e+00
      vertex   3.999716e+01  2.578156e+00  2.122442e+00
      vertex   3.480383e+01  2.371473e+00  8.902011e+00
    endloop
  endfacet
  facet normal  6.198876e-02  9.979780e-01 -1.404279e-02
    outer loop
      vertex   2.840853e+01  2.756538e+00  8.036764e+00
      vertex   3.480383e+01  2.371473e+00  8.902011e+00
      vertex   3.241300e+01  2.418218e+00  1.670235e+00
    endloop
  endfacet
  facet normal  7.577474e-01 -6.177667e-01  2.101981e-01
    outer loop
      vertex   2.082026e+01 -2.604277e+01  8.056379e+00
      vertex   2.562730e+01 -2.142563e+01  4.297031e+00
      vertex   2.512219e+01 -2.087136e+01  7.746896e+00
    endloop
  endfacet
  facet normal  8.502214e-01 -4.858978e-01  2.025510e-01
    outer loop
      vertex   2.562730e+01 -2.142563e+01  4.297031e+00
      vertex   2.832587e+01 -1.530642e+01  7.648921e+00
      vertex   2.512219e+01 -2.087136e+01  7.746896e+00
    endloop
  endfacet
  facet normal -3.492759e-01  9.274160e-01  1.338121e-01
    outer loop
      vertex  -6.676036e+00  2.773720e+01  9.815102e+00
      vertex  -1.034055e+01  2.748868e+01  1.972421e+00
      vertex  -1.221915e+01  2.588886e+01  8.156828e+00
    endloop
  endfacet
  facet normal -6.193252e-01 -5.356051e-02  7.833056e-01
    outer loop
      vertex  -1.995291e+01 -2.513990e+01  6.520195e+00
      vertex  -1.736407e+01 -3.439001e+01  7.934576e+00
      vertex  -1.564009e+01 -3.023242e+01  9.581938e+00
    endloop
  endfacet
  facet normal -9.431363e-01 -1.609864e-01 -2.908219e-01
    outer loop
      vertex  -2.159376e+01 -1.678293e+01  7.215419e+00
      vertex  -1.995291e+01 -2.513990e+01  6.520195e+00
      vertex  -2.178722e+01 -2.265125e+01  1.109126e+01
    endloop
  endfacet
  facet normal -2.634922e-03  9.994477e-01  3.312467e-02
    outer loop
      vertex   4.753752e+00  2.798811e+01  8.451664e+00
      vertex  -2.342113e+00  2.815614e+01  2.817372e+00
      vertex  -8.363109e-01  2.786126e+01  1.183436e+01
    endloop
  endfacet
  facet normal  9.586273e-01 -2.342011e-01  1.618127e-01
    outer loop
      vertex   4.008285e+01 -1.040657e+01  7.171382e+00
      vertex   4.215382e+01 -4.007660e+00  4.163861e+00
      vertex   4.091519e+01 -4.400339e+00  1.093352e+01
    endloop
  endfacet
  facet normal  9.759912e-01  1.146022e-01  1.852224e-01
    outer loop
      vertex   4.215382e+01 -4.007660e+00  4.163861e+00
      vertex   4.075565e+01  1.326898e+00  8.230594e+00
      vertex   4.091519e+01 -4.400339e+00  1.093352e+01
    endloop
  endfacet
  facet normal  4.889589e-02  6.275352e-02  9.968306e-01
    outer loop
      vertex   2.438346e+01  1.892964e+01  7.345607e+00
      vertex   2.364514e+01  2.539235e+01  6.974975e+00
      vertex   1.664568e+01  1.958834e+01  7.683688e+00
    endloop
  endfacet
  facet normal  9.564317e-02  6.202576e-03  9.953964e-01
    outer loop
      vertex   1.728637e+01  2.594056e+01  7.582545e+00
      vertex   1.664568e+01  1.958834e+01  7.683688e+00
      vertex   2.364514e+01  2.539235e+01  6.974975e+00
    endloop
  endfacet
  facet normal  4.475863e-02  1.308465e-02  9.989121e-01
    outer loop
      vertex   1.910350e+01  1.254606e+01  7.665806e+00
      vertex   2.438346e+01  1.892964e+01  7.345607e+00
      vertex   1.664568e+01  1.958834e+01  7.683688e+00
    endloop
  endfacet
  facet normal  9.858098e-01  1.193894e-01  1.180051e-01
    outer loop
      vertex   2.364514e+01  2.539235e+01  6.974975e+00
      vertex   2.438346e+01  1.892964e+01  7.345607e+00
      vertex   2.434080e+01  2.247117e+01  4.118908e+00
    endloop
  endfacet
  facet normal  4.803264e-02  1.037064e-02  9.987919e-01
    outer loop
      vertex   2.527611e+01  1.296099e+01  7.364652e+00
      vertex   2.438346e+01  1.892964e+01  7.345607e+00
      vertex   1.910350e+01  1.254606e+01  7.665806e+00
    endloop
  endfacet
  facet normal  4.908022e-02 -5.221103e-03  9.987812e-01
    outer loop
      vertex   2.492716e+01  6.838040e+00  7.349792e+00
      vertex   2.527611e+01  1.296099e+01  7.364652e+00
      vertex   1.910350e+01  1.254606e+01  7.665806e+00
    endloop
  endfacet
  facet normal  5.427622e-02  7.134072e-02  9.959742e-01
    outer loop
      vertex   1.612536e+01  6.170244e+00  7.877285e+00
      vertex   2.248360e+01  2.425423e+00  7.799027e+00
      vertex   2.492716e+01  6.838040e+00  7.349792e+00
    endloop
  endfacet
  facet normal  5.941701e-02  5.356234e-03  9.982189e-01
    outer loop
      vertex   1.910350e+01  1.254606e+01  7.665806e+00
      vertex   1.612536e+01  6.170244e+00  7.877285e+00
      vertex   2.492716e+01  6.838040e+00  7.349792e+00
    endloop
  endfacet
  facet normal -3.450081e-02  9.986659e-01  3.842058e-02
    outer loop
      vertex  -6.676036e+00  2.773720e+01  9.815102e+00
      vertex  -8.363109e-01  2.786126e+01  1.183436e+01
      vertex  -2.342113e+00  2.815614e+01  2.817372e+00
    endloop
  endfacet
  facet normal -5.907360e-02 -1.018543e-01  9.930438e-01
    outer loop
      vertex   2.832587e+01 -1.530642e+01  7.648921e+00
      vertex   2.958380e+01 -8.846668e+00  8.386314e+00
      vertex   2.352710e+01 -8.823161e+00  8.028428e+00
    endloop
  endfacet
  facet normal  3.112710e-02  1.277400e-02  9.994338e-01
    outer loop
      vertex   1.664568e+01  1.958834e+01  7.683688e+00
      vertex   1.728637e+01  2.594056e+01  7.582545e+00
      vertex   1.071041e+01  2.553258e+01  7.792566e+00
    endloop
  endfacet
  facet normal  1.101141e-01 -1.338669e-01  9.848626e-01
    outer loop
      vertex   2.958380e+01 -8.846668e+00  8.386314e+00
      vertex   2.832587e+01 -1.530642e+01  7.648921e+00
      vertex   3.445446e+01 -1.191797e+01  7.424278e+00
    endloop
  endfacet
  facet normal  3.007758e-02  1.172524e-02  9.994788e-01
    outer loop
      vertex   8.685699e+00  1.923653e+01  7.927357e+00
      vertex   1.664568e+01  1.958834e+01  7.683688e+00
      vertex   1.071041e+01  2.553258e+01  7.792566e+00
    endloop
  endfacet
  facet normal  3.428563e-02  9.428325e-03  9.993676e-01
    outer loop
      vertex   1.664568e+01  1.958834e+01  7.683688e+00
      vertex   1.230857e+01  1.359743e+01  7.889003e+00
      vertex   1.910350e+01  1.254606e+01  7.665806e+00
    endloop
  endfacet
  facet normal  2.785327e-02 -3.785538e-02  9.988950e-01
    outer loop
      vertex   2.133679e+01 -1.498817e+01  7.855866e+00
      vertex   2.832587e+01 -1.530642e+01  7.648921e+00
      vertex   2.352710e+01 -8.823161e+00  8.028428e+00
    endloop
  endfacet
  facet normal -2.711227e-01 -1.694099e-02  9.623957e-01
    outer loop
      vertex   1.646315e+01 -1.158831e+00  7.903958e+00
      vertex   1.701326e+01 -8.043811e+00  7.937737e+00
      vertex   2.327530e+01 -3.245017e+00  9.786329e+00
    endloop
  endfacet
  facet normal  2.962158e-02  5.451468e-04  9.995610e-01
    outer loop
      vertex   2.512219e+01 -2.087136e+01  7.746896e+00
      vertex   2.832587e+01 -1.530642e+01  7.648921e+00
      vertex   2.133679e+01 -1.498817e+01  7.855866e+00
    endloop
  endfacet
  facet normal  3.004294e-02  1.250334e-02  9.994704e-01
    outer loop
      vertex   1.230857e+01  1.359743e+01  7.889003e+00
      vertex   1.664568e+01  1.958834e+01  7.683688e+00
      vertex   8.685699e+00  1.923653e+01  7.927357e+00
    endloop
  endfacet
  facet normal -1.655443e-01  3.055151e-01  9.376863e-01
    outer loop
      vertex   2.248360e+01  2.425423e+00  7.799027e+00
      vertex   1.646315e+01 -1.158831e+00  7.903958e+00
      vertex   2.327530e+01 -3.245017e+00  9.786329e+00
    endloop
  endfacet
  facet normal  3.886806e-02  6.500837e-03  9.992232e-01
    outer loop
      vertex   2.133679e+01 -1.498817e+01  7.855866e+00
      vertex   1.674795e+01 -2.031083e+01  8.068993e+00
      vertex   2.512219e+01 -2.087136e+01  7.746896e+00
    endloop
  endfacet
  facet normal -4.941428e-02 -3.022300e-01  9.519534e-01
    outer loop
      vertex   2.352710e+01 -8.823161e+00  8.028428e+00
      vertex   2.327530e+01 -3.245017e+00  9.786329e+00
      vertex   1.701326e+01 -8.043811e+00  7.937737e+00
    endloop
  endfacet
  facet normal  3.539276e-02  1.661166e-02  9.992354e-01
    outer loop
      vertex   1.612536e+01  6.170244e+00  7.877285e+00
      vertex   1.910350e+01  1.254606e+01  7.665806e+00
      vertex   1.230857e+01  1.359743e+01  7.889003e+00
    endloop
  endfacet
  facet normal  1.485304e-02  4.323444e-03  9.998804e-01
    outer loop
      vertex   2.248360e+01  2.425423e+00  7.799027e+00
      vertex   1.612536e+01  6.170244e+00  7.877285e+00
      vertex   1.646315e+01 -1.158831e+00  7.903958e+00
    endloop
  endfacet
  facet normal  2.920971e-02  1.343384e-02  9.994830e-01
    outer loop
      vertex   1.612536e+01  6.170244e+00  7.877285e+00
      vertex   1.230857e+01  1.359743e+01  7.889003e+00
      vertex   8.964730e+00  8.168626e+00  8.059693e+00
    endloop
  endfacet
  facet normal -1.656121e-02 -2.209602e-02  9.996187e-01
    outer loop
      vertex   2.133679e+01 -1.498817e+01  7.855866e+00
      vertex   2.352710e+01 -8.823161e+00  8.028428e+00
      vertex   1.701326e+01 -8.043811e+00  7.937737e+00
    endloop
  endfacet
  facet normal  3.816772e-02  1.198293e-02  9.991995e-01
    outer loop
      vertex   1.701326e+01 -8.043811e+00  7.937737e+00
      vertex   1.469057e+01 -1.442197e+01  8.102950e+00
      vertex   2.133679e+01 -1.498817e+01  7.855866e+00
    endloop
  endfacet
  facet normal  4.018211e-02  2.634975e-02  9.988449e-01
    outer loop
      vertex   2.082026e+01 -2.604277e+01  8.056379e+00
      vertex   2.512219e+01 -2.087136e+01  7.746896e+00
      vertex   1.674795e+01 -2.031083e+01  8.068993e+00
    endloop
  endfacet
  facet normal  2.451382e-02  4.768000e-03  9.996881e-01
    outer loop
      vertex   1.612536e+01  6.170244e+00  7.877285e+00
      vertex   9.621947e+00  1.525494e+00  8.058911e+00
      vertex   1.646315e+01 -1.158831e+00  7.903958e+00
    endloop
  endfacet
  facet normal  4.171923e-02  8.235137e-03  9.990954e-01
    outer loop
      vertex   1.701326e+01 -8.043811e+00  7.937737e+00
      vertex   1.646315e+01 -1.158831e+00  7.903958e+00
      vertex   1.034975e+01 -5.436278e+00  8.194492e+00
    endloop
  endfacet
  facet normal  2.615426e-02  2.469811e-03  9.996549e-01
    outer loop
      vertex   8.964730e+00  8.168626e+00  8.059693e+00
      vertex   9.621947e+00  1.525494e+00  8.058911e+00
      vertex   1.612536e+01  6.170244e+00  7.877285e+00
    endloop
  endfacet
  facet normal  3.778272e-02  7.437961e-03  9.992583e-01
    outer loop
      vertex   1.674795e+01 -2.031083e+01  8.068993e+00
      vertex   2.133679e+01 -1.498817e+01  7.855866e+00
      vertex   1.469057e+01 -1.442197e+01  8.102950e+00
    endloop
  endfacet
  facet normal  3.402452e-01 -1.805564e-01  9.228394e-01
    outer loop
      vertex   8.964730e+00  8.168626e+00  8.059693e+00
      vertex   1.230857e+01  1.359743e+01  7.889003e+00
      vertex   4.819266e+00  1.319742e+01  1.057200e+01
    endloop
  endfacet
  facet normal  3.209673e-01  1.999107e-01  9.257514e-01
    outer loop
      vertex   8.685699e+00  1.923653e+01  7.927357e+00
      vertex   4.819266e+00  1.319742e+01  1.057200e+01
      vertex   1.230857e+01  1.359743e+01  7.889003e+00
    endloop
  endfacet
  facet normal  3.156338e-02  2.276004e-02  9.992426e-01
    outer loop
      vertex   9.621947e+00  1.525494e+00  8.058911e+00
      vertex   1.034975e+01 -5.436278e+00  8.194492e+00
      vertex   1.646315e+01 -1.158831e+00  7.903958e+00
    endloop
  endfacet
  facet normal  5.750327e-01 -1.887856e-01  7.960511e-01
    outer loop
      vertex   1.701326e+01 -8.043811e+00  7.937737e+00
      vertex   1.121275e+01 -1.077485e+01  1.148010e+01
      vertex   1.469057e+01 -1.442197e+01  8.102950e+00
    endloop
  endfacet
  facet normal  2.411539e-01  5.366433e-01  8.086154e-01
    outer loop
      vertex   1.121275e+01 -1.077485e+01  1.148010e+01
      vertex   1.701326e+01 -8.043811e+00  7.937737e+00
      vertex   1.034975e+01 -5.436278e+00  8.194492e+00
    endloop
  endfacet
  facet normal  2.922771e-01  2.055957e-01  9.339724e-01
    outer loop
      vertex   1.674795e+01 -2.031083e+01  8.068993e+00
      vertex   1.326360e+01 -2.456347e+01  1.009552e+01
      vertex   2.082026e+01 -2.604277e+01  8.056379e+00
    endloop
  endfacet
  facet normal  1.129223e-01  1.998155e-02  9.934029e-01
    outer loop
      vertex   2.093923e+01 -3.270042e+01  8.176769e+00
      vertex   2.082026e+01 -2.604277e+01  8.056379e+00
      vertex   1.311068e+01 -2.965567e+01  9.005415e+00
    endloop
  endfacet
  facet normal  2.160481e-01 -2.105863e-01  9.534026e-01
    outer loop
      vertex   1.326360e+01 -2.456347e+01  1.009552e+01
      vertex   1.311068e+01 -2.965567e+01  9.005415e+00
      vertex   2.082026e+01 -2.604277e+01  8.056379e+00
    endloop
  endfacet
  facet normal  1.617451e-02  1.989697e-03  9.998671e-01
    outer loop
      vertex  -1.465875e+01  1.960101e+01  8.208805e+00
      vertex  -1.221915e+01  2.588886e+01  8.156828e+00
      vertex  -1.872890e+01  2.443022e+01  8.265037e+00
    endloop
  endfacet
  facet normal -4.293765e-01 -3.714721e-01  8.231915e-01
    outer loop
      vertex  -1.465875e+01  1.960101e+01  8.208805e+00
      vertex  -1.872890e+01  2.443022e+01  8.265037e+00
      vertex  -2.016562e+01  1.941828e+01  5.253964e+00
    endloop
  endfacet
  facet normal -4.420969e-01  4.082408e-01  7.986801e-01
    outer loop
      vertex  -1.927804e+01  1.436815e+01  8.326615e+00
      vertex  -1.465875e+01  1.960101e+01  8.208805e+00
      vertex  -2.016562e+01  1.941828e+01  5.253964e+00
    endloop
  endfacet
  facet normal  2.868121e-02 -1.931713e-01  9.807458e-01
    outer loop
      vertex   1.496900e+01 -3.426276e+01  8.043640e+00
      vertex   2.093923e+01 -3.270042e+01  8.176769e+00
      vertex   1.311068e+01 -2.965567e+01  9.005415e+00
    endloop
  endfacet
  facet normal -4.995744e-02  5.721408e-03  9.987349e-01
    outer loop
      vertex  -1.231865e+01  8.012476e-03  8.356851e+00
      vertex  -1.273775e+01  6.935510e+00  8.296202e+00
      vertex  -1.922830e+01  2.590991e+00  7.996428e+00
    endloop
  endfacet
  facet normal -3.404660e-01  1.397822e-01  9.298085e-01
    outer loop
      vertex  -8.443038e+00  1.939001e+01  1.051652e+01
      vertex  -1.221915e+01  2.588886e+01  8.156828e+00
      vertex  -1.465875e+01  1.960101e+01  8.208805e+00
    endloop
  endfacet
  facet normal  7.159632e-03  1.618988e-02  9.998433e-01
    outer loop
      vertex  -1.243403e+01  1.339984e+01  8.293286e+00
      vertex  -1.465875e+01  1.960101e+01  8.208805e+00
      vertex  -1.927804e+01  1.436815e+01  8.326615e+00
    endloop
  endfacet
  facet normal -4.538083e-02  1.797434e-02  9.988080e-01
    outer loop
      vertex  -1.922830e+01  2.590991e+00  7.996428e+00
      vertex  -1.884773e+01 -3.543543e+00  8.124115e+00
      vertex  -1.231865e+01  8.012476e-03  8.356851e+00
    endloop
  endfacet
  facet normal -4.644112e-02  4.553257e-04  9.989210e-01
    outer loop
      vertex  -1.922830e+01  2.590991e+00  7.996428e+00
      vertex  -1.273775e+01  6.935510e+00  8.296202e+00
      vertex  -1.967859e+01  8.936696e+00  7.972601e+00
    endloop
  endfacet
  facet normal -3.492004e-01 -1.126052e-01  9.302576e-01
    outer loop
      vertex  -1.465875e+01  1.960101e+01  8.208805e+00
      vertex  -1.243403e+01  1.339984e+01  8.293286e+00
      vertex  -8.443038e+00  1.939001e+01  1.051652e+01
    endloop
  endfacet
  facet normal -8.675554e-02 -2.369958e-01  9.676293e-01
    outer loop
      vertex   1.311068e+01 -2.965567e+01  9.005415e+00
      vertex   8.278608e+00 -3.461451e+01  7.357642e+00
      vertex   1.496900e+01 -3.426276e+01  8.043640e+00
    endloop
  endfacet
  facet normal -4.582294e-02  2.603468e-03  9.989462e-01
    outer loop
      vertex  -1.243403e+01  1.339984e+01  8.293286e+00
      vertex  -1.967859e+01  8.936696e+00  7.972601e+00
      vertex  -1.273775e+01  6.935510e+00  8.296202e+00
    endloop
  endfacet
  facet normal -4.297828e-03 -6.472436e-02  9.978939e-01
    outer loop
      vertex  -1.927804e+01  1.436815e+01  8.326615e+00
      vertex  -1.967859e+01  8.936696e+00  7.972601e+00
      vertex  -1.243403e+01  1.339984e+01  8.293286e+00
    endloop
  endfacet
  facet normal -9.138640e-02  1.030964e-01  9.904643e-01
    outer loop
      vertex  -1.884773e+01 -3.543543e+00  8.124115e+00
      vertex  -1.373825e+01 -7.399361e+00  8.996896e+00
      vertex  -1.231865e+01  8.012476e-03  8.356851e+00
    endloop
  endfacet
  facet normal -3.597828e-01  1.485433e-01  9.211358e-01
    outer loop
      vertex  -7.269110e+00 -3.526688e+00  1.089914e+01
      vertex  -1.231865e+01  8.012476e-03  8.356851e+00
      vertex  -1.373825e+01 -7.399361e+00  8.996896e+00
    endloop
  endfacet
  facet normal -1.579403e-01  1.419775e-02  9.873466e-01
    outer loop
      vertex  -1.892189e+01 -1.036273e+01  8.210310e+00
      vertex  -1.373825e+01 -7.399361e+00  8.996896e+00
      vertex  -1.884773e+01 -3.543543e+00  8.124115e+00
    endloop
  endfacet
  facet normal -5.373175e-02 -3.484989e-01  9.357679e-01
    outer loop
      vertex  -1.564009e+01 -3.023242e+01  9.581938e+00
      vertex  -1.736407e+01 -3.439001e+01  7.934576e+00
      vertex  -1.095661e+01 -3.517720e+01  8.009327e+00
    endloop
  endfacet
  facet normal -6.726180e-01  1.682535e-01  7.206079e-01
    outer loop
      vertex  -2.159376e+01 -1.678293e+01  7.215419e+00
      vertex  -1.569325e+01 -1.332740e+01  1.191615e+01
      vertex  -1.892189e+01 -1.036273e+01  8.210310e+00
    endloop
  endfacet
  facet normal -7.631367e-01 -3.031709e-01  5.707100e-01
    outer loop
      vertex  -1.995291e+01 -2.513990e+01  6.520195e+00
      vertex  -1.564009e+01 -3.023242e+01  9.581938e+00
      vertex  -1.511655e+01 -2.574303e+01  1.266684e+01
    endloop
  endfacet
  facet normal  1.048997e-01 -1.244499e-02  9.944050e-01
    outer loop
      vertex   8.685699e+00  1.923653e+01  7.927357e+00
      vertex   1.071041e+01  2.553258e+01  7.792566e+00
      vertex   4.753752e+00  2.798811e+01  8.451664e+00
    endloop
  endfacet
  facet normal  1.764948e-01 -5.171216e-01  8.375171e-01
    outer loop
      vertex   3.445446e+01 -1.191797e+01  7.424278e+00
      vertex   4.008285e+01 -1.040657e+01  7.171382e+00
      vertex   3.545285e+01 -4.825983e+00  1.159280e+01
    endloop
  endfacet
  facet normal  6.927850e-02 -5.419540e-01  8.375478e-01
    outer loop
      vertex  -4.422973e+00 -3.485688e+01  7.676162e+00
      vertex  -8.693891e+00 -2.953898e+01  1.147050e+01
      vertex  -1.095661e+01 -3.517720e+01  8.009327e+00
    endloop
  endfacet
  facet normal  5.580805e-01  2.025278e-01  8.046916e-01
    outer loop
      vertex   4.753752e+00  2.798811e+01  8.451664e+00
      vertex   3.261473e+00  2.093604e+01  1.126150e+01
      vertex   8.685699e+00  1.923653e+01  7.927357e+00
    endloop
  endfacet
  facet normal -4.529471e-01 -1.959904e-02  8.913220e-01
    outer loop
      vertex  -1.273775e+01  6.935510e+00  8.296202e+00
      vertex  -1.231865e+01  8.012476e-03  8.356851e+00
      vertex  -6.830508e+00  4.207689e+00  1.123813e+01
    endloop
  endfacet
  facet normal  4.872197e-01  6.789096e-02  8.706364e-01
    outer loop
      vertex   9.621947e+00  1.525494e+00  8.058911e+00
      vertex   4.367450e+00 -2.506805e+00  1.131383e+01
      vertex   1.034975e+01 -5.436278e+00  8.194492e+00
    endloop
  endfacet
  facet normal -1.371066e-01 -4.875264e-01  8.622760e-01
    outer loop
      vertex   2.958380e+01 -8.846668e+00  8.386314e+00
      vertex   3.445446e+01 -1.191797e+01  7.424278e+00
      vertex   3.545285e+01 -4.825983e+00  1.159280e+01
    endloop
  endfacet
  facet normal  5.222536e-01  5.156729e-02  8.512297e-01
    outer loop
      vertex   9.621947e+00  1.525494e+00  8.058911e+00
      vertex   8.964730e+00  8.168626e+00  8.059693e+00
      vertex   3.937512e+00  4.979011e+00  1.133726e+01
    endloop
  endfacet
  facet normal -4.057021e-01  5.079799e-01  7.598435e-01
    outer loop
      vertex  -1.373825e+01 -7.399361e+00  8.996896e+00
      vertex  -1.892189e+01 -1.036273e+01  8.210310e+00
      vertex  -1.569325e+01 -1.332740e+01  1.191615e+01
    endloop
  endfacet
  facet normal  3.831461e-02 -5.546327e-01  8.312127e-01
    outer loop
      vertex   1.924385e+00 -3.456851e+01  7.681234e+00
      vertex   8.278608e+00 -3.461451e+01  7.357642e+00
      vertex   5.728337e+00 -2.867152e+01  1.144070e+01
    endloop
  endfacet
  facet normal  2.450744e-02 -5.540691e-01  8.321099e-01
    outer loop
      vertex  -4.422973e+00 -3.485688e+01  7.676162e+00
      vertex   1.924385e+00 -3.456851e+01  7.681234e+00
      vertex  -1.648726e+00 -2.894718e+01  1.152949e+01
    endloop
  endfacet
  facet normal -4.681258e-01  2.239285e-02  8.833780e-01
    outer loop
      vertex  -1.243403e+01  1.339984e+01  8.293286e+00
      vertex  -1.273775e+01  6.935510e+00  8.296202e+00
      vertex  -6.908411e+00  1.166724e+01  1.126538e+01
    endloop
  endfacet
  facet normal  1.422036e-01 -5.395192e-01  8.298778e-01
    outer loop
      vertex   4.008285e+01 -1.040657e+01  7.171382e+00
      vertex   4.091519e+01 -4.400339e+00  1.093352e+01
      vertex   3.545285e+01 -4.825983e+00  1.159280e+01
    endloop
  endfacet
  facet normal -3.290972e-01  8.792311e-02  9.401939e-01
    outer loop
      vertex  -7.483666e+00 -1.063222e+01  1.148852e+01
      vertex  -7.269110e+00 -3.526688e+00  1.089914e+01
      vertex  -1.373825e+01 -7.399361e+00  8.996896e+00
    endloop
  endfacet
  facet normal -4.571289e-01 -8.452492e-01  2.767435e-01
    outer loop
      vertex  -1.511655e+01 -2.574303e+01  1.266684e+01
      vertex  -2.178722e+01 -2.265125e+01  1.109126e+01
      vertex  -1.995291e+01 -2.513990e+01  6.520195e+00
    endloop
  endfacet
  facet normal -5.596937e-02  3.232561e-01  9.446549e-01
    outer loop
      vertex   2.248360e+01  2.425423e+00  7.799027e+00
      vertex   2.327530e+01 -3.245017e+00  9.786329e+00
      vertex   2.840853e+01  2.756538e+00  8.036764e+00
    endloop
  endfacet
  facet normal  2.137160e-01 -4.892260e-01  8.455670e-01
    outer loop
      vertex   8.278608e+00 -3.461451e+01  7.357642e+00
      vertex   1.311068e+01 -2.965567e+01  9.005415e+00
      vertex   5.728337e+00 -2.867152e+01  1.144070e+01
    endloop
  endfacet
  facet normal -3.284014e-01  1.479095e-01  9.328855e-01
    outer loop
      vertex  -6.676036e+00  2.773720e+01  9.815102e+00
      vertex  -1.221915e+01  2.588886e+01  8.156828e+00
      vertex  -8.443038e+00  1.939001e+01  1.051652e+01
    endloop
  endfacet
  facet normal -7.579453e-02  5.737129e-01  8.155419e-01
    outer loop
      vertex   2.938795e+01 -2.881096e+00  1.209372e+01
      vertex   3.480383e+01  2.371473e+00  8.902011e+00
      vertex   2.840853e+01  2.756538e+00  8.036764e+00
    endloop
  endfacet
  facet normal  5.305057e-01  3.131564e-02  8.471027e-01
    outer loop
      vertex   3.261473e+00  2.093604e+01  1.126150e+01
      vertex   4.819266e+00  1.319742e+01  1.057200e+01
      vertex   8.685699e+00  1.923653e+01  7.927357e+00
    endloop
  endfacet
  facet normal -4.759391e-01 -9.299705e-03  8.794290e-01
    outer loop
      vertex  -8.443038e+00  1.939001e+01  1.051652e+01
      vertex  -1.243403e+01  1.339984e+01  8.293286e+00
      vertex  -6.908411e+00  1.166724e+01  1.126538e+01
    endloop
  endfacet
  facet normal -4.487208e-01 -7.950675e-03  8.936366e-01
    outer loop
      vertex  -6.908411e+00  1.166724e+01  1.126538e+01
      vertex  -1.273775e+01  6.935510e+00  8.296202e+00
      vertex  -6.830508e+00  4.207689e+00  1.123813e+01
    endloop
  endfacet
  facet normal -1.906208e-01 -4.568769e-01  8.688654e-01
    outer loop
      vertex  -1.564009e+01 -3.023242e+01  9.581938e+00
      vertex  -1.095661e+01 -3.517720e+01  8.009327e+00
      vertex  -8.693891e+00 -2.953898e+01  1.147050e+01
    endloop
  endfacet
  facet normal  4.658254e-01  9.088156e-03  8.848300e-01
    outer loop
      vertex   4.367450e+00 -2.506805e+00  1.131383e+01
      vertex   4.290548e+00 -9.842319e+00  1.142966e+01
      vertex   1.034975e+01 -5.436278e+00  8.194492e+00
    endloop
  endfacet
  facet normal  4.000929e-02 -5.588598e-01  8.282964e-01
    outer loop
      vertex  -8.693891e+00 -2.953898e+01  1.147050e+01
      vertex  -4.422973e+00 -3.485688e+01  7.676162e+00
      vertex  -1.648726e+00 -2.894718e+01  1.152949e+01
    endloop
  endfacet
  facet normal -4.569363e-01 -1.306958e-02  8.894035e-01
    outer loop
      vertex  -7.269110e+00 -3.526688e+00  1.089914e+01
      vertex  -6.830508e+00  4.207689e+00  1.123813e+01
      vertex  -1.231865e+01  8.012476e-03  8.356851e+00
    endloop
  endfacet
  facet normal  5.115342e-01  2.669120e-02  8.588483e-01
    outer loop
      vertex   4.367450e+00 -2.506805e+00  1.131383e+01
      vertex   9.621947e+00  1.525494e+00  8.058911e+00
      vertex   3.937512e+00  4.979011e+00  1.133726e+01
    endloop
  endfacet
  facet normal  3.063536e-02 -5.512952e-01  8.337476e-01
    outer loop
      vertex   5.728337e+00 -2.867152e+01  1.144070e+01
      vertex  -1.648726e+00 -2.894718e+01  1.152949e+01
      vertex   1.924385e+00 -3.456851e+01  7.681234e+00
    endloop
  endfacet
  facet normal -3.297033e-01  5.130355e-01  7.925215e-01
    outer loop
      vertex   2.327530e+01 -3.245017e+00  9.786329e+00
      vertex   2.938795e+01 -2.881096e+00  1.209372e+01
      vertex   2.840853e+01  2.756538e+00  8.036764e+00
    endloop
  endfacet
  facet normal  5.366548e-01  2.096898e-02  8.435414e-01
    outer loop
      vertex   4.819266e+00  1.319742e+01  1.057200e+01
      vertex   3.937512e+00  4.979011e+00  1.133726e+01
      vertex   8.964730e+00  8.168626e+00  8.059693e+00
    endloop
  endfacet
  facet normal -9.950130e-02 -5.275744e-01  8.436615e-01
    outer loop
      vertex   2.958380e+01 -8.846668e+00  8.386314e+00
      vertex   3.545285e+01 -4.825983e+00  1.159280e+01
      vertex   2.938795e+01 -2.881096e+00  1.209372e+01
    endloop
  endfacet
  facet normal  6.532991e-02  5.306545e-01  8.450667e-01
    outer loop
      vertex   4.290548e+00 -9.842319e+00  1.142966e+01
      vertex   1.121275e+01 -1.077485e+01  1.148010e+01
      vertex   1.034975e+01 -5.436278e+00  8.194492e+00
    endloop
  endfacet
  facet normal -5.212422e-02 -5.283557e-01  8.474215e-01
    outer loop
      vertex   2.352710e+01 -8.823161e+00  8.028428e+00
      vertex   2.958380e+01 -8.846668e+00  8.386314e+00
      vertex   2.938795e+01 -2.881096e+00  1.209372e+01
    endloop
  endfacet
  facet normal -3.215659e-01 -2.977786e-01  8.988455e-01
    outer loop
      vertex   2.352710e+01 -8.823161e+00  8.028428e+00
      vertex   2.938795e+01 -2.881096e+00  1.209372e+01
      vertex   2.327530e+01 -3.245017e+00  9.786329e+00
    endloop
  endfacet
  facet normal  1.665307e-01  3.584315e-01  9.185828e-01
    outer loop
      vertex   3.480383e+01  2.371473e+00  8.902011e+00
      vertex   3.545285e+01 -4.825983e+00  1.159280e+01
      vertex   4.075565e+01  1.326898e+00  8.230594e+00
    endloop
  endfacet
  facet normal  7.544453e-02  4.273011e-01  9.009561e-01
    outer loop
      vertex   4.075565e+01  1.326898e+00  8.230594e+00
      vertex   3.545285e+01 -4.825983e+00  1.159280e+01
      vertex   4.091519e+01 -4.400339e+00  1.093352e+01
    endloop
  endfacet
  facet normal  1.905287e-01  3.587941e-01  9.137645e-01
    outer loop
      vertex   3.545285e+01 -4.825983e+00  1.159280e+01
      vertex   3.480383e+01  2.371473e+00  8.902011e+00
      vertex   2.938795e+01 -2.881096e+00  1.209372e+01
    endloop
  endfacet
  facet normal -9.993744e-01  1.067795e-02 -3.371599e-02
    outer loop
      vertex  -2.178722e+01 -2.265125e+01  1.109126e+01
      vertex  -2.186110e+01 -1.696312e+01  1.508256e+01
      vertex  -2.159376e+01 -1.678293e+01  7.215419e+00
    endloop
  endfacet
  facet normal -5.068434e-01  8.620344e-01  2.520573e-03
    outer loop
      vertex  -1.569325e+01 -1.332740e+01  1.191615e+01
      vertex  -2.159376e+01 -1.678293e+01  7.215419e+00
      vertex  -2.186110e+01 -1.696312e+01  1.508256e+01
    endloop
  endfacet
  facet normal  5.004265e-01  2.269994e-01  8.354906e-01
    outer loop
      vertex   3.261473e+00  2.093604e+01  1.126150e+01
      vertex   4.753752e+00  2.798811e+01  8.451664e+00
      vertex  -8.363109e-01  2.786126e+01  1.183436e+01
    endloop
  endfacet
  facet normal -5.860283e-01  1.902412e-01  7.876415e-01
    outer loop
      vertex  -8.443038e+00  1.939001e+01  1.051652e+01
      vertex  -3.058984e+00  2.204490e+01  1.388117e+01
      vertex  -6.676036e+00  2.773720e+01  9.815102e+00
    endloop
  endfacet
  facet normal -1.078117e-01  4.676002e-01  8.773407e-01
    outer loop
      vertex  -7.483666e+00 -1.063222e+01  1.148852e+01
      vertex  -1.373825e+01 -7.399361e+00  8.996896e+00
      vertex  -1.569325e+01 -1.332740e+01  1.191615e+01
    endloop
  endfacet
  facet normal  5.183206e-01  2.818391e-02  8.547218e-01
    outer loop
      vertex   3.261473e+00  2.093604e+01  1.126150e+01
      vertex  -1.496807e+00  1.552599e+01  1.432541e+01
      vertex   4.819266e+00  1.319742e+01  1.057200e+01
    endloop
  endfacet
  facet normal  5.326942e-01  2.162578e-02  8.460315e-01
    outer loop
      vertex   3.937512e+00  4.979011e+00  1.133726e+01
      vertex   4.819266e+00  1.319742e+01  1.057200e+01
      vertex  -1.011058e+00  8.438972e+00  1.436463e+01
    endloop
  endfacet
  facet normal  2.811248e-01 -2.089535e-01  9.366468e-01
    outer loop
      vertex   1.326360e+01 -2.456347e+01  1.009552e+01
      vertex   5.728337e+00 -2.867152e+01  1.144070e+01
      vertex   1.311068e+01 -2.965567e+01  9.005415e+00
    endloop
  endfacet
  facet normal -5.133581e-01 -8.499437e-03  8.581325e-01
    outer loop
      vertex  -7.269110e+00 -3.526688e+00  1.089914e+01
      vertex  -1.464708e+00  6.561722e-01  1.441292e+01
      vertex  -6.830508e+00  4.207689e+00  1.123813e+01
    endloop
  endfacet
  facet normal -4.857998e-01 -1.178652e-02  8.739907e-01
    outer loop
      vertex  -6.908411e+00  1.166724e+01  1.126538e+01
      vertex  -1.496807e+00  1.552599e+01  1.432541e+01
      vertex  -8.443038e+00  1.939001e+01  1.051652e+01
    endloop
  endfacet
  facet normal -4.844881e-01  8.683252e-02  8.704777e-01
    outer loop
      vertex  -7.483666e+00 -1.063222e+01  1.148852e+01
      vertex  -1.421496e+00 -6.760589e+00  1.447638e+01
      vertex  -7.269110e+00 -3.526688e+00  1.089914e+01
    endloop
  endfacet
  facet normal  9.350986e-01  3.258908e-01  1.392325e-01
    outer loop
      vertex   1.674795e+01 -2.031083e+01  8.068993e+00
      vertex   1.469057e+01 -1.442197e+01  8.102950e+00
      vertex   1.366697e+01 -1.482635e+01  1.592404e+01
    endloop
  endfacet
  facet normal -1.689484e-01 -5.447352e-01  8.214134e-01
    outer loop
      vertex  -8.693891e+00 -2.953898e+01  1.147050e+01
      vertex  -1.511655e+01 -2.574303e+01  1.266684e+01
      vertex  -1.564009e+01 -3.023242e+01  9.581938e+00
    endloop
  endfacet
  facet normal -4.686679e-01 -8.121364e-03  8.833371e-01
    outer loop
      vertex  -6.908411e+00  1.166724e+01  1.126538e+01
      vertex  -6.830508e+00  4.207689e+00  1.123813e+01
      vertex  -1.011058e+00  8.438972e+00  1.436463e+01
    endloop
  endfacet
  facet normal  7.760165e-01  6.164361e-01  1.334347e-01
    outer loop
      vertex   1.121275e+01 -1.077485e+01  1.148010e+01
      vertex   1.366697e+01 -1.482635e+01  1.592404e+01
      vertex   1.469057e+01 -1.442197e+01  8.102950e+00
    endloop
  endfacet
  facet normal  4.795542e-01  2.479715e-02  8.771618e-01
    outer loop
      vertex   3.937512e+00  4.979011e+00  1.133726e+01
      vertex  -1.464708e+00  6.561722e-01  1.441292e+01
      vertex   4.367450e+00 -2.506805e+00  1.131383e+01
    endloop
  endfacet
  facet normal  7.921775e-01 -6.023765e-01  9.796639e-02
    outer loop
      vertex   1.326360e+01 -2.456347e+01  1.009552e+01
      vertex   1.674795e+01 -2.031083e+01  8.068993e+00
      vertex   1.469775e+01 -2.172167e+01  1.597236e+01
    endloop
  endfacet
  facet normal  4.743505e-01  8.927109e-03  8.802908e-01
    outer loop
      vertex   4.290548e+00 -9.842319e+00  1.142966e+01
      vertex   4.367450e+00 -2.506805e+00  1.131383e+01
      vertex  -1.421496e+00 -6.760589e+00  1.447638e+01
    endloop
  endfacet
  facet normal -5.064703e-01 -6.276561e-02  8.599701e-01
    outer loop
      vertex  -3.058984e+00  2.204490e+01  1.388117e+01
      vertex  -8.443038e+00  1.939001e+01  1.051652e+01
      vertex  -1.496807e+00  1.552599e+01  1.432541e+01
    endloop
  endfacet
  facet normal  4.020704e-01  1.633885e-01  9.009127e-01
    outer loop
      vertex  -8.363109e-01  2.786126e+01  1.183436e+01
      vertex  -3.058984e+00  2.204490e+01  1.388117e+01
      vertex   3.261473e+00  2.093604e+01  1.126150e+01
    endloop
  endfacet
  facet normal  5.214272e-01  4.045584e-02  8.523362e-01
    outer loop
      vertex  -1.011058e+00  8.438972e+00  1.436463e+01
      vertex   4.819266e+00  1.319742e+01  1.057200e+01
      vertex  -1.496807e+00  1.552599e+01  1.432541e+01
    endloop
  endfacet
  facet normal  3.179284e-02 -5.912543e-01  8.058583e-01
    outer loop
      vertex   5.728337e+00 -2.867152e+01  1.144070e+01
      vertex   5.395286e-02 -2.347351e+01  1.547832e+01
      vertex  -1.648726e+00 -2.894718e+01  1.152949e+01
    endloop
  endfacet
  facet normal  4.473640e-01 -6.048650e-01  6.587897e-01
    outer loop
      vertex   1.326360e+01 -2.456347e+01  1.009552e+01
      vertex   7.181586e+00 -2.320030e+01  1.547722e+01
      vertex   5.728337e+00 -2.867152e+01  1.144070e+01
    endloop
  endfacet
  facet normal  4.113405e-02 -5.713877e-01  8.196488e-01
    outer loop
      vertex  -1.648726e+00 -2.894718e+01  1.152949e+01
      vertex  -7.195405e+00 -2.379341e+01  1.540061e+01
      vertex  -8.693891e+00 -2.953898e+01  1.147050e+01
    endloop
  endfacet
  facet normal -3.048349e-01  4.176949e-01  8.559244e-01
    outer loop
      vertex  -8.363109e-01  2.786126e+01  1.183436e+01
      vertex  -6.676036e+00  2.773720e+01  9.815102e+00
      vertex  -3.058984e+00  2.204490e+01  1.388117e+01
    endloop
  endfacet
  facet normal  7.975985e-02  6.336794e-01  7.694730e-01
    outer loop
      vertex   6.343927e+00 -1.514331e+01  1.558231e+01
      vertex   1.121275e+01 -1.077485e+01  1.148010e+01
      vertex   4.290548e+00 -9.842319e+00  1.142966e+01
    endloop
  endfacet
  facet normal  9.513003e-01  1.441193e-01  2.725022e-01
    outer loop
      vertex   1.674795e+01 -2.031083e+01  8.068993e+00
      vertex   1.366697e+01 -1.482635e+01  1.592404e+01
      vertex   1.469775e+01 -2.172167e+01  1.597236e+01
    endloop
  endfacet
  facet normal -5.201155e-01  4.277521e-03  8.540853e-01
    outer loop
      vertex  -1.421496e+00 -6.760589e+00  1.447638e+01
      vertex  -1.464708e+00  6.561722e-01  1.441292e+01
      vertex  -7.269110e+00 -3.526688e+00  1.089914e+01
    endloop
  endfacet
  facet normal -4.420273e-01 -1.215793e-04  8.970016e-01
    outer loop
      vertex  -1.047439e+00 -1.472583e+01  1.465963e+01
      vertex  -1.421496e+00 -6.760589e+00  1.447638e+01
      vertex  -7.483666e+00 -1.063222e+01  1.148852e+01
    endloop
  endfacet
  facet normal -1.760098e-01  6.530054e-01  7.366169e-01
    outer loop
      vertex  -8.237935e+00 -1.563755e+01  1.574548e+01
      vertex  -7.483666e+00 -1.063222e+01  1.148852e+01
      vertex  -1.569325e+01 -1.332740e+01  1.191615e+01
    endloop
  endfacet
  facet normal  4.015835e-01  1.577121e-01  9.021406e-01
    outer loop
      vertex  -1.496807e+00  1.552599e+01  1.432541e+01
      vertex   3.261473e+00  2.093604e+01  1.126150e+01
      vertex  -3.058984e+00  2.204490e+01  1.388117e+01
    endloop
  endfacet
  facet normal -4.769168e-01 -2.782650e-02  8.785079e-01
    outer loop
      vertex  -1.011058e+00  8.438972e+00  1.436463e+01
      vertex  -1.496807e+00  1.552599e+01  1.432541e+01
      vertex  -6.908411e+00  1.166724e+01  1.126538e+01
    endloop
  endfacet
  facet normal -4.921148e-01  3.408202e-02  8.698630e-01
    outer loop
      vertex  -6.830508e+00  4.207689e+00  1.123813e+01
      vertex  -1.464708e+00  6.561722e-01  1.441292e+01
      vertex  -1.011058e+00  8.438972e+00  1.436463e+01
    endloop
  endfacet
  facet normal  4.735677e-01  1.029471e-02  8.806973e-01
    outer loop
      vertex   4.367450e+00 -2.506805e+00  1.131383e+01
      vertex  -1.464708e+00  6.561722e-01  1.441292e+01
      vertex  -1.421496e+00 -6.760589e+00  1.447638e+01
    endloop
  endfacet
  facet normal -6.572203e-02  5.994473e-01  7.977116e-01
    outer loop
      vertex   4.290548e+00 -9.842319e+00  1.142966e+01
      vertex  -1.047439e+00 -1.472583e+01  1.465963e+01
      vertex   6.343927e+00 -1.514331e+01  1.558231e+01
    endloop
  endfacet
  facet normal  2.302589e-02 -5.974804e-01  8.015528e-01
    outer loop
      vertex   5.395286e-02 -2.347351e+01  1.547832e+01
      vertex   5.728337e+00 -2.867152e+01  1.144070e+01
      vertex   7.181586e+00 -2.320030e+01  1.547722e+01
    endloop
  endfacet
  facet normal  5.092605e-01 -2.434644e-02  8.602679e-01
    outer loop
      vertex  -1.011058e+00  8.438972e+00  1.436463e+01
      vertex  -1.464708e+00  6.561722e-01  1.441292e+01
      vertex   3.937512e+00  4.979011e+00  1.133726e+01
    endloop
  endfacet
  facet normal -1.574852e-01 -5.292242e-01  8.337387e-01
    outer loop
      vertex  -7.195405e+00 -2.379341e+01  1.540061e+01
      vertex  -1.511655e+01 -2.574303e+01  1.266684e+01
      vertex  -8.693891e+00 -2.953898e+01  1.147050e+01
    endloop
  endfacet
  facet normal  3.361985e-02  6.445522e-01  7.638208e-01
    outer loop
      vertex  -1.047439e+00 -1.472583e+01  1.465963e+01
      vertex  -7.483666e+00 -1.063222e+01  1.148852e+01
      vertex  -8.237935e+00 -1.563755e+01  1.574548e+01
    endloop
  endfacet
  facet normal  1.730507e-02 -5.885116e-01  8.083035e-01
    outer loop
      vertex  -7.195405e+00 -2.379341e+01  1.540061e+01
      vertex  -1.648726e+00 -2.894718e+01  1.152949e+01
      vertex   5.395286e-02 -2.347351e+01  1.547832e+01
    endloop
  endfacet
  facet normal -3.769695e-01 -9.075750e-01 -1.849369e-01
    outer loop
      vertex  -2.178722e+01 -2.265125e+01  1.109126e+01
      vertex  -1.511655e+01 -2.574303e+01  1.266684e+01
      vertex  -2.078722e+01 -2.436153e+01  1.744606e+01
    endloop
  endfacet
  facet normal  4.881422e-01  4.297831e-02  8.717053e-01
    outer loop
      vertex  -1.047439e+00 -1.472583e+01  1.465963e+01
      vertex   4.290548e+00 -9.842319e+00  1.142966e+01
      vertex  -1.421496e+00 -6.760589e+00  1.447638e+01
    endloop
  endfacet
  facet normal -6.341323e-02  7.198119e-01  6.912667e-01
    outer loop
      vertex   1.366697e+01 -1.482635e+01  1.592404e+01
      vertex   1.121275e+01 -1.077485e+01  1.148010e+01
      vertex   6.343927e+00 -1.514331e+01  1.558231e+01
    endloop
  endfacet
  facet normal  5.739457e-02  9.003296e-01  4.314076e-01
    outer loop
      vertex  -8.237935e+00 -1.563755e+01  1.574548e+01
      vertex  -1.569325e+01 -1.332740e+01  1.191615e+01
      vertex  -1.490965e+01 -1.601619e+01  1.742329e+01
    endloop
  endfacet
  facet normal  1.514563e-01 -9.038648e-01  4.001118e-01
    outer loop
      vertex   7.181586e+00 -2.320030e+01  1.547722e+01
      vertex   1.326360e+01 -2.456347e+01  1.009552e+01
      vertex   1.469775e+01 -2.172167e+01  1.597236e+01
    endloop
  endfacet
  facet normal -9.865147e-01 -1.024042e-01  1.276791e-01
    outer loop
      vertex  -2.186110e+01 -1.696312e+01  1.508256e+01
      vertex  -2.178722e+01 -2.265125e+01  1.109126e+01
      vertex  -2.078722e+01 -2.436153e+01  1.744606e+01
    endloop
  endfacet
  facet normal  1.034640e-01 -9.267549e-01  3.611378e-01
    outer loop
      vertex  -7.195405e+00 -2.379341e+01  1.540061e+01
      vertex  -1.387279e+01 -2.354510e+01  1.795086e+01
      vertex  -1.511655e+01 -2.574303e+01  1.266684e+01
    endloop
  endfacet
  facet normal -2.683997e-01  8.500369e-01  4.532095e-01
    outer loop
      vertex  -1.569325e+01 -1.332740e+01  1.191615e+01
      vertex  -2.186110e+01 -1.696312e+01  1.508256e+01
      vertex  -1.490965e+01 -1.601619e+01  1.742329e+01
    endloop
  endfacet
  facet normal  8.271862e-02 -9.268993e-01  3.660809e-01
    outer loop
      vertex  -2.078722e+01 -2.436153e+01  1.744606e+01
      vertex  -1.511655e+01 -2.574303e+01  1.266684e+01
      vertex  -1.387279e+01 -2.354510e+01  1.795086e+01
    endloop
  endfacet
  facet normal  9.873061e-01  1.479962e-01  5.765113e-02
    outer loop
      vertex   1.366697e+01 -1.482635e+01  1.592404e+01
      vertex   1.397114e+01 -1.875765e+01  2.080701e+01
      vertex   1.469775e+01 -2.172167e+01  1.597236e+01
    endloop
  endfacet
  facet normal -3.054739e-02  7.958056e-01  6.047812e-01
    outer loop
      vertex   6.343927e+00 -1.514331e+01  1.558231e+01
      vertex  -1.047439e+00 -1.472583e+01  1.465963e+01
      vertex   1.691644e+00 -1.938332e+01  2.092657e+01
    endloop
  endfacet
  facet normal -8.788235e-03  7.937099e-01  6.082329e-01
    outer loop
      vertex  -1.047439e+00 -1.472583e+01  1.465963e+01
      vertex  -8.237935e+00 -1.563755e+01  1.574548e+01
      vertex  -4.768395e+00 -1.965613e+01  2.103963e+01
    endloop
  endfacet
  facet normal -9.498371e-01 -3.872809e-02  3.103379e-01
    outer loop
      vertex  -2.078722e+01 -2.436153e+01  1.744606e+01
      vertex  -1.968127e+01 -1.967665e+01  2.141563e+01
      vertex  -2.186110e+01 -1.696312e+01  1.508256e+01
    endloop
  endfacet
  facet normal  2.958007e-02 -8.119456e-01  5.829832e-01
    outer loop
      vertex  -7.195405e+00 -2.379341e+01  1.540061e+01
      vertex   5.395286e-02 -2.347351e+01  1.547832e+01
      vertex  -4.768395e+00 -1.965613e+01  2.103963e+01
    endloop
  endfacet
  facet normal  3.090132e-02 -8.037737e-01  5.941321e-01
    outer loop
      vertex   5.395286e-02 -2.347351e+01  1.547832e+01
      vertex   7.181586e+00 -2.320030e+01  1.547722e+01
      vertex   1.691644e+00 -1.938332e+01  2.092657e+01
    endloop
  endfacet
  facet normal -6.261203e-02  7.924234e-01  6.067495e-01
    outer loop
      vertex   1.366697e+01 -1.482635e+01  1.592404e+01
      vertex   6.343927e+00 -1.514331e+01  1.558231e+01
      vertex   8.005898e+00 -1.914269e+01  2.097706e+01
    endloop
  endfacet
  facet normal  1.207843e-01 -8.073707e-01  5.775496e-01
    outer loop
      vertex   8.005898e+00 -1.914269e+01  2.097706e+01
      vertex   7.181586e+00 -2.320030e+01  1.547722e+01
      vertex   1.469775e+01 -2.172167e+01  1.597236e+01
    endloop
  endfacet
  facet normal -2.691278e-01  8.482647e-01  4.560890e-01
    outer loop
      vertex  -1.490965e+01 -1.601619e+01  1.742329e+01
      vertex  -2.186110e+01 -1.696312e+01  1.508256e+01
      vertex  -1.968127e+01 -1.967665e+01  2.141563e+01
    endloop
  endfacet
  facet normal  1.056867e-01  7.934956e-01  5.993287e-01
    outer loop
      vertex  -8.237935e+00 -1.563755e+01  1.574548e+01
      vertex  -1.490965e+01 -1.601619e+01  1.742329e+01
      vertex  -1.160705e+01 -1.957155e+01  2.154811e+01
    endloop
  endfacet
  facet normal -3.228538e-02  7.775362e-01  6.280088e-01
    outer loop
      vertex   1.366697e+01 -1.482635e+01  1.592404e+01
      vertex   8.005898e+00 -1.914269e+01  2.097706e+01
      vertex   1.397114e+01 -1.875765e+01  2.080701e+01
    endloop
  endfacet
  facet normal  2.236178e-01 -7.211297e-01  6.557187e-01
    outer loop
      vertex  -1.387279e+01 -2.354510e+01  1.795086e+01
      vertex  -7.195405e+00 -2.379341e+01  1.540061e+01
      vertex  -1.160705e+01 -1.957155e+01  2.154811e+01
    endloop
  endfacet
  facet normal  6.967153e-02 -8.457631e-01  5.289901e-01
    outer loop
      vertex   8.005898e+00 -1.914269e+01  2.097706e+01
      vertex   1.469775e+01 -2.172167e+01  1.597236e+01
      vertex   1.397114e+01 -1.875765e+01  2.080701e+01
    endloop
  endfacet
  facet normal -2.312998e-02  7.975372e-01  6.028262e-01
    outer loop
      vertex   1.691644e+00 -1.938332e+01  2.092657e+01
      vertex  -1.047439e+00 -1.472583e+01  1.465963e+01
      vertex  -4.768395e+00 -1.965613e+01  2.103963e+01
    endloop
  endfacet
  facet normal  2.600130e-02 -8.062854e-01  5.909550e-01
    outer loop
      vertex   8.005898e+00 -1.914269e+01  2.097706e+01
      vertex   1.691644e+00 -1.938332e+01  2.092657e+01
      vertex   7.181586e+00 -2.320030e+01  1.547722e+01
    endloop
  endfacet
  facet normal -3.521073e-02  7.976061e-01  6.021501e-01
    outer loop
      vertex   8.005898e+00 -1.914269e+01  2.097706e+01
      vertex   6.343927e+00 -1.514331e+01  1.558231e+01
      vertex   1.691644e+00 -1.938332e+01  2.092657e+01
    endloop
  endfacet
  facet normal  4.435485e-02 -8.052867e-01  5.912240e-01
    outer loop
      vertex   5.395286e-02 -2.347351e+01  1.547832e+01
      vertex   1.691644e+00 -1.938332e+01  2.092657e+01
      vertex  -4.768395e+00 -1.965613e+01  2.103963e+01
    endloop
  endfacet
  facet normal  2.114933e-02 -6.492153e-01  7.603106e-01
    outer loop
      vertex  -2.078722e+01 -2.436153e+01  1.744606e+01
      vertex  -1.387279e+01 -2.354510e+01  1.795086e+01
      vertex  -1.968127e+01 -1.967665e+01  2.141563e+01
    endloop
  endfacet
  facet normal  3.321563e-02 -8.125887e-01  5.818903e-01
    outer loop
      vertex  -4.768395e+00 -1.965613e+01  2.103963e+01
      vertex  -1.160705e+01 -1.957155e+01  2.154811e+01
      vertex  -7.195405e+00 -2.379341e+01  1.540061e+01
    endloop
  endfacet
  facet normal  5.326816e-02  8.118953e-01  5.813679e-01
    outer loop
      vertex  -4.768395e+00 -1.965613e+01  2.103963e+01
      vertex  -8.237935e+00 -1.563755e+01  1.574548e+01
      vertex  -1.160705e+01 -1.957155e+01  2.154811e+01
    endloop
  endfacet
  facet normal -2.061494e-02  7.490743e-01  6.621653e-01
    outer loop
      vertex  -1.160705e+01 -1.957155e+01  2.154811e+01
      vertex  -1.490965e+01 -1.601619e+01  1.742329e+01
      vertex  -1.968127e+01 -1.967665e+01  2.141563e+01
    endloop
  endfacet
  facet normal -3.457910e-03 -6.700439e-01  7.423134e-01
    outer loop
      vertex  -1.387279e+01 -2.354510e+01  1.795086e+01
      vertex  -1.160705e+01 -1.957155e+01  2.154811e+01
      vertex  -1.968127e+01 -1.967665e+01  2.141563e+01
    endloop
  endfacet
endsolid vcg
